Coordinates
version=1
nRows=14
nColumns=33
inDegrees=yes

Units are S.I. units (second, meters, Newtons, ...)
Angles are in degrees.

endheader
time	ground_thorax_rot_x	ground_thorax_rot_y	ground_thorax_rot_z	ground_thorax_tx	ground_thorax_ty	ground_thorax_tz	clav_prot_r	clav_elev_r	scapula_abduction_r	scapula_elevation_r	scapula_upward_rot_r	scapula_winging_r	shoulder_elv_r	plane_of_elev_r	axial_rot_r	elbow_flexion_r	pro_sup_r	wrist_flex_r	wrist_dev_r	clav_prot_l	clav_elev_l	scapula_abduction_l	scapula_elevation_l	scapula_upward_rot_l	scapula_winging_l	shoulder_elv_l	plane_of_elev_l	axial_rot_l	elbow_flexion_l	pro_sup_l	wrist_flex_l	wrist_dev_l
      8.72000000	     40.18962807	     14.96190864	     15.90491772	   -160.29493110	    807.85110662	      3.97703675	     14.29156952	     42.06818150	     41.76225753	     45.00000000	    -24.13125238	  -2609.88100010	  -3176.55409808	     32.47643354	     47.56733573	   1451.91373861	     23.91823361	     19.13686965	      8.43479558	      6.07557498	    -45.00000000	    -37.21236263	     45.00000000	    -39.71632866	    452.24640685	    -94.90637008	    137.13034199	    159.24327874	   -349.68743674	     15.48216820	      7.04117720	    -19.94140781
      8.73000000	     40.25347177	     14.75231665	     15.56294339	   -162.80559828	    809.41318334	      3.91148135	     14.18729431	     42.25260890	     41.68541351	     45.00000000	    -23.96950518	  -2609.98905054	  -3176.36224216	     32.49573385	     47.49901855	   1451.98433693	     23.66394731	     19.17854731	      8.40132159	      6.00844344	    -45.00000000	    -37.36931210	     45.00000000	    -39.36910662	    452.40499774	    -94.74073881	    137.25007918	    159.18702546	   -349.64678382	     14.45630038	      7.19035908	    -19.94164554
      8.74000000	     40.37049313	     14.32695314	     15.08651079	   -165.32608581	    810.97378262	      3.84776758	     13.88494451	     42.42875773	     41.77533145	     45.00000000	    -23.41339161	  -2610.22755769	  -3176.38563620	     32.45829013	     47.50161007	   1451.96961705	     23.49118749	     19.24037556	      8.43695508	      5.68492982	    -45.00000000	    -37.52515341	     45.00000000	    -38.53069331	    452.57750435	    -94.87159971	    137.51750877	    159.20693743	   -349.69011588	     13.71156391	      7.18587257	    -19.94687696
      8.75000000	     40.41861404	     14.22764787	     14.93890128	   -167.85050850	    812.52487387	      3.78444016	     13.78054991	     42.37715778	     41.73960239	     45.00000000	    -23.37054568	  -2610.38211468	  -3176.23431818	     32.48112435	     47.62969486	   1452.02231046	     23.27037529	     19.27553763	      8.35931274	      5.76744708	    -45.00000000	    -37.55711275	     45.00000000	    -38.45695580	    452.84145762	    -94.74042590	    137.55705124	    159.03535752	   -349.64707994	     12.94716117	      7.20623014	    -19.94883226
      8.76000000	     40.39321580	     14.36790592	     15.02930908	   -170.37354029	    814.06069585	      3.72038940	     13.87694197	     42.23181622	     41.50604720	     45.00000000	    -23.97375932	  -2610.33273566	  -3175.83680793	     32.64842796	     47.37183606	   1452.11734465	     22.88977490	     19.28753940	      8.23442893	      6.05619036	    -45.00000000	    -37.51476008	     45.00000000	    -38.96802716	    453.14677248	    -94.38784421	    137.45214829	    158.64207001	   -349.52355730	     12.00762675	      7.30674701	    -19.94646446
      8.77000000	     40.42133579	     14.17954211	     14.84116005	   -172.88959519	    815.57716455	      3.65506835	     13.75035398	     42.24317717	     41.47024309	     45.00000000	    -23.93561666	  -2610.41670143	  -3175.70000730	     32.64954954	     47.19271371	   1452.16981542	     22.58171957	     19.34145711	      8.24033041	      5.95773287	    -45.00000000	    -37.56513356	     45.00000000	    -38.64918651	    453.38189325	    -94.37785719	    137.62614374	    158.48153814	   -349.51976082	     11.20115997	      7.33504721	    -19.95339232
      8.78000000	     40.42676284	     14.04151579	     14.68361752	   -175.39248962	    817.06928735	      3.58883851	     13.63747439	     42.15733880	     41.45290100	     45.00000000	    -23.99854805	  -2610.50326719	  -3175.55434736	     32.66875995	     47.08957001	   1452.18965765	     22.28147252	     19.38386582	      8.21256793	      5.95846941	    -45.00000000	    -37.61734825	     45.00000000	    -38.52393108	    453.63072769	    -94.25436938	    137.70454497	    158.26281499	   -349.55846622	     10.44139210	      7.35025778	    -19.95208635
      8.79000000	     40.43220522	     13.97990009	     14.62605392	   -177.87776955	    818.53429979	      3.52264419	     13.58020956	     42.06317634	     41.35574602	     45.00000000	    -24.21415597	  -2610.55349867	  -3175.35062479	     32.71158867	     46.97110106	   1452.22698004	     21.95611490	     19.41718611	      8.16975658	      6.02655547	    -45.00000000	    -37.62201971	     45.00000000	    -38.57384834	    453.88343147	    -94.12864618	    137.75492275	    158.00073141	   -349.52767317	      9.66844896	      7.37542673	    -19.95634852
      8.80000000	     40.42895460	     13.89950073	     14.54521689	   -180.33640600	    819.96701037	      3.45805944	     13.51953788	     41.99362566	     41.26583659	     45.00000000	    -24.39416739	  -2610.57847473	  -3175.16748121	     32.76563217	     46.85792508	   1452.23518821	     21.61286643	     19.44022412	      8.12804717	      6.10291272	    -45.00000000	    -37.62887511	     45.00000000	    -38.59854194	    454.14938496	    -94.04890568	    137.82778546	    157.68964158	   -349.52378337	      8.88628923	      7.41842161	    -19.95428567
      8.81000000	     40.44366200	     13.83177963	     14.46569598	   -182.76809670	    821.36796993	      3.39666473	     13.44926840	     41.87785653	     41.18722865	     45.00000000	    -24.60897290	  -2610.65300393	  -3174.95257550	     32.81573102	     46.74163383	   1452.28917982	     21.26461507	     19.48102000	      8.08740382	      6.13223276	    -45.00000000	    -37.60530948	     45.00000000	    -38.73526459	    454.37796502	    -93.86099009	    137.84172457	    157.51371298	   -349.49141731	      8.08603334	      7.44743290	    -19.95978291
      8.82000000	     40.44323168	     13.76986438	     14.39524747	   -185.16685941	    822.73485439	      3.34035294	     13.40404925	     41.78209905	     41.08511285	     45.00000000	    -24.84322932	  -2610.68430143	  -3174.74760392	     32.85833402	     46.59453034	   1452.31535774	     20.89827346	     19.51088888	      8.06236425	      6.20545176	    -45.00000000	    -37.61373293	     45.00000000	    -38.72840435	    454.64387010	    -93.75997937	    137.90727742	    157.15207100	   -349.46945982	      7.30015541	      7.48221161	    -19.95854882
      8.83000000	     40.36166157	     13.97756571	     14.77729910	   -187.53326731	    824.07023201	      3.29093624	     13.55727174	     41.39072044	     40.83797860	     45.00000000	    -25.76612339	  -2610.55805559	  -3174.41330613	     33.16515456	     46.36315922	   1452.16559038	     20.31195334	     19.43567667	      7.92016018	      6.69780921	    -45.00000000	    -37.28847628	     45.00000000	    -39.91069566	    454.98899531	    -93.44888430	    137.61734838	    156.79636085	   -349.57072085	      6.10529278	      7.55051408	    -19.86477158
      8.84000000	     40.60502093	     13.04389174	     13.72379944	   -189.86029858	    825.37450333	      3.25009996	     13.00177415	     41.14690078	     41.33235151	     45.00000000	    -24.61771715	  -2611.00687879	  -3174.73429851	     32.88728417	     46.08201894	   1451.99456724	     20.04889310	     19.53481367	      8.00703735	      6.07907882	    -45.00000000	    -37.48797739	     45.00000000	    -38.40177125	    455.22206116	    -93.78215187	    137.65463820	    156.91312748	   -349.71485038	      5.49758262	      7.54124600	    -19.92849657
      8.85000000	     40.57449407	     12.89648393	     13.56775904	   -192.15435270	    826.65300199	      3.21940010	     13.06210009	     41.44836595	     40.96618696	     45.00000000	    -24.73018883	  -2610.83130616	  -3174.42669391	     33.07830343	     46.38732009	   1452.12178121	     19.78252378	     19.51339929	      7.88026178	      6.19171471	    -45.00000000	    -37.61839186	     45.00000000	    -38.07488221	    455.49762697	    -93.64145552	    137.89732090	    155.89852615	   -349.61058401	      5.10221917	      7.78757818	    -19.92906377
